<svg xmlns="http://www.w3.org/2000/svg" width="1024" height="1024" viewBox="0 0 1024 1024">
  <rect width="1024" height="1024" fill="#F2F1ED"/>
  <g transform="translate(194.6 194.6) scale(4.9600)">
  <g fill="#121213">
    <rect x="9" y="9" width="18" height="18" rx="4"/>
    <rect x="101" y="9" width="18" height="18" rx="4"/>
    <rect x="9" y="32" width="18" height="18" rx="4"/>
    <rect x="32" y="32" width="18" height="18" rx="4"/>
    <rect x="78" y="32" width="18" height="18" rx="4"/>
    <rect x="101" y="32" width="18" height="18" rx="4"/>
    <rect x="9" y="55" width="18" height="18" rx="4"/>
    <rect x="101" y="55" width="18" height="18" rx="4"/>
    <rect x="9" y="78" width="18" height="18" rx="4"/>
    <rect x="101" y="78" width="18" height="18" rx="4"/>
    <rect x="9" y="101" width="18" height="18" rx="4"/>
    <rect x="101" y="101" width="18" height="18" rx="4"/>
  </g>
  <rect x="55" y="55" width="18" height="18" rx="4" fill="#DE3B26"/>
  </g>
</svg>
