<svg xmlns="http://www.w3.org/2000/svg" width="128" height="128" viewBox="0 0 128 128">
  <g fill="#121213">
    <rect x="9" y="9" width="18" height="18" rx="4"/>
    <rect x="101" y="9" width="18" height="18" rx="4"/>
    <rect x="9" y="32" width="18" height="18" rx="4"/>
    <rect x="32" y="32" width="18" height="18" rx="4"/>
    <rect x="78" y="32" width="18" height="18" rx="4"/>
    <rect x="101" y="32" width="18" height="18" rx="4"/>
    <rect x="9" y="55" width="18" height="18" rx="4"/>
    <rect x="101" y="55" width="18" height="18" rx="4"/>
    <rect x="9" y="78" width="18" height="18" rx="4"/>
    <rect x="101" y="78" width="18" height="18" rx="4"/>
    <rect x="9" y="101" width="18" height="18" rx="4"/>
    <rect x="101" y="101" width="18" height="18" rx="4"/>
  </g>
  <rect x="55" y="55" width="18" height="18" rx="4" fill="#DE3B26"/>
</svg>
