<svg xmlns="http://www.w3.org/2000/svg" width="128" height="128" viewBox="0 0 128 128">
  <rect x="14" y="14" width="46" height="46" rx="10" fill="none" stroke="#121213" stroke-width="5"/>
  <path d="M37 26 a4 4 0 1 1 4 4 v3 M25 48 L37 34 L49 48 Z"
        fill="none" stroke="#121213" stroke-width="4" stroke-linejoin="round" stroke-linecap="round"/>

  <rect x="68" y="14" width="46" height="46" rx="10" fill="none" stroke="#121213" stroke-width="5"/>
  <circle cx="91" cy="28" r="6" fill="#121213"/>
  <path d="M80 50 L83 38 h16 l3 12 Z" fill="#121213"/>

  <rect x="14" y="68" width="46" height="46" rx="10" fill="none" stroke="#DE3B26" stroke-width="5"/>
  <path d="M37 79 c11 0 15 8 15 15 c0 6 -7 9 -15 9 c-8 0 -15 -3 -15 -9 c0 -7 4 -15 15 -15 Z" fill="#DE3B26"/>

  <rect x="70.5" y="70.5" width="41" height="41" rx="8" fill="none" stroke="#121213"
        stroke-width="4" stroke-dasharray="7 6" opacity="0.5"/>
  <path d="M91 80 v22 M80 91 h22" stroke="#121213" stroke-width="5" stroke-linecap="round" opacity="0.5"/>
</svg>
