<svg xmlns="http://www.w3.org/2000/svg" width="1024" height="1024" viewBox="0 0 1024 1024">
  <g transform="translate(230.4 230.4) scale(4.4000)">
  <g fill="none" stroke="#000000" stroke-width="1.6" opacity="0.22">
    <rect x="32" y="9" width="18" height="18" rx="4"/>
    <rect x="55" y="9" width="18" height="18" rx="4"/>
    <rect x="78" y="9" width="18" height="18" rx="4"/>
    <rect x="55" y="32" width="18" height="18" rx="4"/>
    <rect x="32" y="55" width="18" height="18" rx="4"/>
    <rect x="78" y="55" width="18" height="18" rx="4"/>
    <rect x="32" y="78" width="18" height="18" rx="4"/>
    <rect x="55" y="78" width="18" height="18" rx="4"/>
    <rect x="78" y="78" width="18" height="18" rx="4"/>
    <rect x="32" y="101" width="18" height="18" rx="4"/>
    <rect x="55" y="101" width="18" height="18" rx="4"/>
    <rect x="78" y="101" width="18" height="18" rx="4"/>
  </g>
  <g fill="#000000">
    <rect x="9" y="9" width="18" height="18" rx="4"/>
    <rect x="101" y="9" width="18" height="18" rx="4"/>
    <rect x="9" y="32" width="18" height="18" rx="4"/>
    <rect x="32" y="32" width="18" height="18" rx="4"/>
    <rect x="78" y="32" width="18" height="18" rx="4"/>
    <rect x="101" y="32" width="18" height="18" rx="4"/>
    <rect x="9" y="55" width="18" height="18" rx="4"/>
    <rect x="101" y="55" width="18" height="18" rx="4"/>
    <rect x="9" y="78" width="18" height="18" rx="4"/>
    <rect x="101" y="78" width="18" height="18" rx="4"/>
    <rect x="9" y="101" width="18" height="18" rx="4"/>
    <rect x="101" y="101" width="18" height="18" rx="4"/>
  </g>
  <rect x="55" y="55" width="18" height="18" rx="4" fill="#000000"/>
  </g>
</svg>
